<?xml version="1.0" encoding="UTF-8" standalone="no"?>
<svg
   version="1.0"
   width="640.000000pt"
   height="640.000000pt"
   viewBox="0 0 640.000000 640.000000"
   preserveAspectRatio="xMidYMid meet"
   id="svg1"
   sodipodi:docname="УМ (синий).svg"
   inkscape:version="1.4.4 (dcaf3e7d, 2026-05-05)"
   xmlns:inkscape="http://www.inkscape.org/namespaces/inkscape"
   xmlns:sodipodi="http://sodipodi.sourceforge.net/DTD/sodipodi-0.dtd"
   xmlns="http://www.w3.org/2000/svg"
   xmlns:svg="http://www.w3.org/2000/svg">
  <defs
     id="defs1" />
  <sodipodi:namedview
     id="namedview1"
     pagecolor="#ffffff"
     bordercolor="#000000"
     borderopacity="0.25"
     inkscape:showpageshadow="2"
     inkscape:pageopacity="0.0"
     inkscape:pagecheckerboard="0"
     inkscape:deskcolor="#d1d1d1"
     inkscape:document-units="pt"
     inkscape:zoom="0.23401838"
     inkscape:cx="461.50221"
     inkscape:cy="476.4583"
     inkscape:window-width="1440"
     inkscape:window-height="900"
     inkscape:window-x="0"
     inkscape:window-y="0"
     inkscape:window-maximized="0"
     inkscape:current-layer="svg1" />
  <g
     transform="translate(0.000000,640.000000) scale(0.100000,-0.100000)"
     fill="#000000"
     stroke="none"
     id="g1"
     style="fill:#1f4777;fill-opacity:1">
    <path
       d="M860 4253 c0 -537 5 -605 54 -775 65 -224 161 -385 330 -553 120 -120 175 -160 312 -229 182 -91 333 -122 553 -113 106 4 154 10 216 30 44 13 83 23 86 21 10 -6 -11 -167 -32 -237 -87 -295 -338 -506 -630 -533 -234 -21 -511 109 -636 297 -14 22 -29 39 -34 39 -14 0 -311 -203 -316 -217 -8 -20 77 -130 168 -219 92 -89 221 -178 314 -217 165 -68 262 -87 448 -87 305 0 559 106 783 327 153 151 262 348 317 573 20 82 21 118 26 977 3 490 8 894 11 897 3 3 19 -14 35 -38 17 -24 67 -97 113 -162 174 -250 294 -424 387 -559 53 -77 151 -220 218 -317 67 -98 171 -250 231 -338 104 -152 132 -188 140 -179 4 5 317 461 415 604 73 108 340 495 531 770 54 77 110 159 125 182 15 24 31 40 36 37 5 -3 9 -597 9 -1370 l0 -1364 200 0 200 0 0 1625 0 1625 -190 0 c-167 0 -198 -3 -252 -21 -79 -26 -164 -86 -209 -147 -54 -72 -190 -262 -288 -402 -92 -131 -238 -337 -394 -555 -51 -71 -113 -160 -137 -197 -46 -68 -63 -81 -74 -52 -3 9 -32 52 -64 97 -33 45 -137 192 -232 327 -95 135 -190 268 -210 295 -20 28 -58 82 -85 120 -26 39 -76 108 -110 155 -34 47 -88 123 -121 169 -71 101 -148 162 -241 191 -55 17 -93 20 -254 20 l-189 0 0 -819 c0 -451 -3 -827 -6 -836 -9 -22 -108 -70 -196 -95 -147 -41 -306 -22 -463 55 -232 114 -384 299 -453 553 l-26 97 -4 523 -3 522 -205 0 -204 0 0 -497z"
       id="path1"
       style="fill:#1f4777;fill-opacity:1" />
  </g>
</svg>
